PathFileType	4	(X/Y/Z)	/Users/itak/Documents/Research/Walk-IL/dataset/trc/00199_00008.trc
DataRate	CameraRate	NumFrames	NumMarkers	Units	OrigDataRate	OrigDataStartFrame	OrigNumFrames
100.000000	100.000000	4	53	mm	100.000000	449	514
Frame#	Time	RPSI			LPSI			L3			STRN			T10			C7			CLAV			RBAK			LBAK			LSHO			LUPA			LAEL			LAOL			LWTS			LWPS			LFRA			LIFD			LHPS			LHTS			RSHO			RUPA			RAEL			RAOL			RWTS			RWPS			RFRA			RIFD			RHTS			RHPS			RBHD			LFHD			RFHD			LBHD			LHIP			RHIP			RASI			LASI			LKNE			LTHI			LANK			LTIP			LTOE			LMT1			LMT5			LHEE			RKNE			RTHI			RANK			RTIP			RTOE			RMT1			RMT5			RHEE			
		X1	Y1	Z1	X2	Y2	Z2	X3	Y3	Z3	X4	Y4	Z4	X5	Y5	Z5	X6	Y6	Z6	X7	Y7	Z7	X8	Y8	Z8	X9	Y9	Z9	X10	Y10	Z10	X11	Y11	Z11	X12	Y12	Z12	X13	Y13	Z13	X14	Y14	Z14	X15	Y15	Z15	X16	Y16	Z16	X17	Y17	Z17	X18	Y18	Z18	X19	Y19	Z19	X20	Y20	Z20	X21	Y21	Z21	X22	Y22	Z22	X23	Y23	Z23	X24	Y24	Z24	X25	Y25	Z25	X26	Y26	Z26	X27	Y27	Z27	X28	Y28	Z28	X29	Y29	Z29	X30	Y30	Z30	X31	Y31	Z31	X32	Y32	Z32	X33	Y33	Z33	X34	Y34	Z34	X35	Y35	Z35	X36	Y36	Z36	X37	Y37	Z37	X38	Y38	Z38	X39	Y39	Z39	X40	Y40	Z40	X41	Y41	Z41	X42	Y42	Z42	X43	Y43	Z43	X44	Y44	Z44	X45	Y45	Z45	X46	Y46	Z46	X47	Y47	Z47	X48	Y48	Z48	X49	Y49	Z49	X50	Y50	Z50	X51	Y51	Z51	X52	Y52	Z52	X53	Y53	Z53	

450	4.49	497.9112548828125	1058.03076171875	760.76220703125	622.4821166992188	1058.0908203125	755.935302734375	557.6655883789062	1093.099487304688	759.75732421875	574.5542602539062	1312.007080078125	1008.4609375	562.711181640625	1247.234375	716.4074096679688	579.7158203125	1519.432495117188	768.2625122070312	583.3150024414062	1423.371459960938	974.0457153320312	466.5001220703125	1341.790649414062	713.7197265625	679.7470092773438	1493.045776367188	760.12548828125	761.5863037109375	1482.474853515625	834.0299682617188	831.3582153320312	1347.700317382812	806.3228759765625	848.4219360351562	1130.223510742188	833.8641357421875	772.4212646484375	1112.087036132812	790.5381469726562	823.9801025390625	907.70556640625	963.6420288085938	858.5153198242188	880.2125244140625	881.359375	862.70166015625	1020.685974121094	854.75830078125	802.8773193359375	726.5022583007812	992.8316650390625	857.0748291015625	813.05029296875	908.6060180664062	845.3844604492188	830.2078247070312	978.8299560546875	400.295654296875	1501.2353515625	840.63037109375	329.4723205566406	1433.308349609375	828.0458984375	282.9715881347656	1140.861572265625	840.1689453125	380.3806762695312	1134.051391601562	830.957763671875	310.3714599609375	927.1910400390625	996.861572265625	260.0855102539062	903.4121704101562	925.4566040039062	266.3934326171875	1071.132446289062	870.8368530273438	336.6385498046875	737.9797973632812	1024.4501953125	305.3289184570312	834.7056884765625	1029.462158203125	265.2236022949219	822.8727416992188	960.8291625976562	510.3840026855469	1704.003540039062	852.5740356445312	669.348876953125	1711.223754882812	1001.006103515625	543.1737670898438	1716.273559570312	1024.474975585938	645.0983276367188	1708.092041015625	822.3469848632812	744.5044555664062	1000.128967285156	858.7255859375	377.6429138183594	1024.4853515625	924.3367919921875	437.4128723144531	1052.642333984375	1002.577575683594	693.8359375	1039.978759765625	986.7781982421875	713.172119140625	505.6987915039062	890.3190307617188	740.8165893554688	646.233154296875	891.40283203125	722.260009765625	43.61084365844727	798.1084594726562	728.546875	279.7364501953125	848.992919921875	691.2802124023438	44.48688125610352	1017.681335449219	644.770751953125	45.57509613037109	965.3189086914062	758.9682006835938	37.33115005493164	907.2980346679688	654.5648803710938	41.74243927001953	744.8609619140625	393.8727416992188	522.3179931640625	920.885498046875	369.2689208984375	789.1927490234375	973.3858032226562	400.1193542480469	36.59877395629883	853.050537109375	411.3018188476562	404.6683349609375	931.967529296875	436.96923828125	46.18436431884766	1076.07861328125	481.60546875	46.77932739257812	1020.940124511719	365.5491333007812	37.09980010986328	966.8325805664062	467.826904296875	34.30469512939453	801.2117309570312	
451	4.5	497.5066223144531	1058.107299804688	760.8922729492188	622.1040649414062	1058.168212890625	755.9312133789062	557.265869140625	1093.208129882812	759.7958984375	574.2986450195312	1312.012084960938	1008.557556152344	562.3245849609375	1247.342407226562	716.548828125	579.35888671875	1519.543701171875	768.3753051757812	583.0197143554688	1423.391723632812	974.1683959960938	466.1685791015625	1341.838256835938	713.8816528320312	679.398193359375	1493.159057617188	760.2138061523438	761.2103881835938	1482.674072265625	834.1476440429688	831.0698852539062	1347.876708984375	806.7586059570312	848.3916625976562	1130.429931640625	835.2802124023438	772.527099609375	1111.98046875	791.87255859375	823.5067749023438	909.4606323242188	967.5311279296875	858.0750732421875	880.8226318359375	885.635009765625	862.54248046875	1020.998901367188	857.3252563476562	802.3302001953125	728.7963256835938	999.370361328125	856.5797119140625	814.0433959960938	913.8074340820312	844.9225463867188	832.238525390625	983.7928466796875	399.9259643554688	1501.225708007812	840.877685546875	329.1347045898438	1433.280883789062	828.2926635742188	282.6543884277344	1140.867553710938	840.1859130859375	380.0875854492188	1134.071533203125	830.8167114257812	310.2059326171875	926.7193603515625	996.3184204101562	259.7803344726562	903.2500610351562	924.9200439453125	266.0940246582031	1071.08349609375	870.71484375	336.4261169433594	737.4273071289062	1023.276062011719	305.2400207519531	834.1995849609375	1028.672973632812	264.9960327148438	822.5474853515625	960.087646484375	509.8564147949219	1704.024047851562	852.760009765625	669.020751953125	1711.375244140625	1001.029357910156	542.8712158203125	1716.367309570312	1024.633056640625	644.5433349609375	1708.20654296875	822.39208984375	744.2749633789062	1000.244506835938	858.3607788085938	377.2796325683594	1024.575439453125	924.697509765625	437.2975769042969	1052.670532226562	1002.818420410156	693.6956787109375	1039.950439453125	986.6035766601562	713.0719604492188	505.7074584960938	889.8829345703125	740.69921875	646.2290649414062	891.0518188476562	722.2845458984375	43.60263061523438	798.107177734375	728.5130004882812	279.8245239257812	848.7685546875	691.282958984375	44.48698806762695	1017.677612304688	644.7879028320312	45.5952033996582	965.3209228515625	758.9852905273438	37.31293869018555	907.2973022460938	654.6051635742188	41.76673889160156	744.867431640625	393.8121643066406	522.3123168945312	921.238525390625	369.0804748535156	789.1358642578125	973.503662109375	400.111328125	36.59434509277344	853.0330810546875	411.2766418457031	404.6024780273438	932.2103881835938	436.9824523925781	46.23414993286133	1076.049682617188	481.6075439453125	46.81644821166992	1020.911193847656	365.571533203125	37.11370086669922	966.8255004882812	467.8138732910156	34.28838729858398	801.1858520507812	
452	4.51	497.1274108886719	1058.18310546875	761.0294799804688	621.7186279296875	1058.248046875	755.9263916015625	556.875	1093.314086914062	759.8319702148438	574.0418701171875	1312.022216796875	1008.658813476562	561.9707641601562	1247.44677734375	716.6834716796875	579.0474243164062	1519.64599609375	768.4882202148438	582.731689453125	1423.416015625	974.2889404296875	465.8829956054688	1341.889282226562	714.03564453125	679.0888671875	1493.268798828125	760.3065795898438	760.85400390625	1482.875244140625	834.2880859375	830.8141479492188	1348.047973632812	807.22705078125	848.3522338867188	1130.63671875	836.726806640625	772.6323852539062	1111.888549804688	793.2071533203125	822.9544067382812	911.1866455078125	971.3270874023438	857.6221923828125	881.4522705078125	889.83984375	862.361572265625	1021.322998046875	859.8929443359375	801.6533203125	731.0715942382812	1005.683471679688	856.0422973632812	815.052734375	918.8961181640625	844.3662719726562	834.2417602539062	988.6302490234375	399.5910034179688	1501.221435546875	841.0938110351562	328.8096923828125	1433.268920898438	828.5034790039062	282.3488159179688	1140.886352539062	840.1626586914062	379.7825317382812	1134.090698242188	830.655029296875	309.963623046875	926.2673950195312	995.7594604492188	259.43017578125	903.1288452148438	924.3751220703125	265.7847290039062	1071.054443359375	870.5690307617188	336.1358642578125	736.9345703125	1022.169860839844	305.0607299804688	833.7509765625	1027.9091796875	264.7042541503906	822.2555541992188	959.3527221679688	509.3585205078125	1704.066162109375	852.9376831054688	668.6858520507812	1711.5107421875	1001.07861328125	542.5584716796875	1716.458374023438	1024.783325195312	644.0086059570312	1708.329833984375	822.4782104492188	744.0408935546875	1000.303771972656	858.028564453125	376.9047546386719	1024.693359375	925.1098022460938	437.1898193359375	1052.703369140625	1003.051696777344	693.572021484375	1039.925415039062	986.4395751953125	712.9769897460938	505.7129821777344	889.4910278320312	740.5760498046875	646.2262573242188	890.7296752929688	722.3081665039062	43.59573745727539	798.1040649414062	728.4813842773438	279.9023742675781	848.56298828125	691.2877197265625	44.48827362060547	1017.672485351562	644.8067016601562	45.61811828613281	965.3218383789062	759.0054931640625	37.29690551757812	907.2940063476562	654.64306640625	41.78339385986328	744.8733520507812	393.78466796875	522.3103637695312	921.59375	368.8589477539062	789.06689453125	973.5904541015625	400.1079711914062	36.58969497680664	853.0159301757812	411.2734680175781	404.5338134765625	932.4612426757812	436.995849609375	46.28701782226562	1076.022338867188	481.6104431152344	46.85214996337891	1020.877624511719	365.5980529785156	37.13057708740234	966.8199462890625	467.8000793457031	34.27107620239258	801.16162109375	
453	4.52	496.7745666503906	1058.25634765625	761.1618041992188	621.3247680664062	1058.328125	755.922607421875	556.4962158203125	1093.415161132812	759.8670043945312	573.7887573242188	1312.035766601562	1008.762268066406	561.6497192382812	1247.54638671875	716.8115234375	578.768310546875	1519.742431640625	768.6015625	582.4522705078125	1423.442993164062	974.4071044921875	465.6356811523438	1341.944091796875	714.1825561523438	678.8161010742188	1493.375244140625	760.4032592773438	760.51806640625	1483.076293945312	834.4458618164062	830.5890502929688	1348.212646484375	807.7239379882812	848.3019409179688	1130.841674804688	838.2045288085938	772.738525390625	1111.80810546875	794.54248046875	822.3206787109375	912.86962890625	975.0206298828125	857.1580810546875	882.0968627929688	893.9618530273438	862.1593627929688	1021.65625	862.45751953125	800.859375	733.3055419921875	1011.737182617188	855.4634399414062	816.0677490234375	923.8552856445312	843.7131958007812	836.1986694335938	993.3265991210938	399.2857971191406	1501.220947265625	841.2828369140625	328.4961242675781	1433.272094726562	828.6835327148438	282.056884765625	1140.91650390625	840.1067504882812	379.4702453613281	1134.10693359375	830.4827270507812	309.6580505371094	925.8466796875	995.19189453125	259.0400390625	903.0377807617188	923.8285522460938	265.472412109375	1071.044799804688	870.4044799804688	335.7813720703125	736.4956665039062	1021.132873535156	304.7870788574219	833.3442993164062	1027.153076171875	264.34716796875	821.9885864257812	958.6289672851562	508.8943481445312	1704.125	853.1082763671875	668.344482421875	1711.632690429688	1001.148559570312	542.23193359375	1716.544067382812	1024.922973632812	643.4957885742188	1708.457397460938	822.6015625	743.7843017578125	1000.295104980469	857.7835083007812	376.5462646484375	1024.82568359375	925.5467529296875	437.087890625	1052.738403320312	1003.267761230469	693.4628295898438	1039.90478515625	986.2900390625	712.8923950195312	505.7198486328125	889.1476440429688	740.4590454101562	646.2267456054688	890.43408203125	722.3306274414062	43.58910751342773	798.0999145507812	728.45166015625	279.9676208496094	848.3735961914062	691.2938232421875	44.4903678894043	1017.666259765625	644.8262329101562	45.64223480224609	965.3214111328125	759.0281372070312	37.28213119506836	907.2888793945312	654.6778564453125	41.79319000244141	744.8770141601562	393.7875366210938	522.3136596679688	921.9408569335938	368.5987548828125	788.9837646484375	973.6450805664062	400.1091918945312	36.58456802368164	852.9990844726562	411.289306640625	404.4659118652344	932.715087890625	437.0092163085938	46.34239196777344	1075.996704101562	481.614013671875	46.88565826416016	1020.841369628906	365.6277770996094	37.14957427978516	966.815673828125	467.7857360839844	34.25265121459961	801.14013671875	
